# xmcd
#
# Track frame offsets: 
#        150
#        17610
#        31385
#        45756
#        62605
#        86978
#        90707
#        104641
#        127068
#        147718
#        162199
#        182939
#
# Disc length: 2695 seconds
#
# Revision: 0
# Processed by: cddbd v1.5.2PL0 Copyright (c) Steve Scherf et al.
# Submitted via: ExactAudioCopy v0.99pb5
#
DISCID=a60a850c
DTITLE=Bach - Szeryng Walcha - 6 Sonaten Violin&Cembalo CD1 PHI
DYEAR=1900
DGENRE=Classical
TTITLE0=A1 - Sonate h-moll Adagio
TTITLE1=A2 - Sonate h-moll Allegro
TTITLE2=A3 - Sonate h-moll Andante
TTITLE3=A4 - Sonate h-moll Allegro
TTITLE4=A5 - Sonate A-dur I
TTITLE5=A6 - Sonate A-dur Allegro assai
TTITLE6=B1 - Sonata A-dur Andante un poco
TTITLE7=B2 - Sonata A-dur Presto
TTITLE8=B3 - Sonate E-dur Adagio
TTITLE9=B4 - Sonate E-dur Allegro
TTITLE10=B5 - Sonate E-dur Adagio ma non tanto
TTITLE11=B6 - Sonate E-dur Allegro
EXTD=
EXTT0=
EXTT1=
EXTT2=
EXTT3=
EXTT4=
EXTT5=
EXTT6=
EXTT7=
EXTT8=
EXTT9=
EXTT10=
EXTT11=
PLAYORDER=
